<mxfile host="app.diagrams.net" agent="Mozilla/5.0 (X11; Linux x86_64) AppleWebKit/537.36 (KHTML, like Gecko) Chrome/125.0.0.0 Safari/537.36" version="24.7.4">
  <diagram name="Page-1" id="5f0bae14-7c28-e335-631c-24af17079c00">
    <mxGraphModel dx="2844" dy="956" grid="1" gridSize="10" guides="1" tooltips="1" connect="1" arrows="1" fold="1" page="1" pageScale="1" pageWidth="1100" pageHeight="850" background="none" math="0" shadow="0">
      <root>
        <mxCell id="0" />
        <mxCell id="1" parent="0" />
        <mxCell id="r8tFkjvlElGeR6HCOG_i-43" value="" style="edgeStyle=orthogonalEdgeStyle;rounded=0;orthogonalLoop=1;jettySize=auto;html=1;fontSize=21;" parent="1" source="r8tFkjvlElGeR6HCOG_i-1" target="r8tFkjvlElGeR6HCOG_i-42" edge="1">
          <mxGeometry relative="1" as="geometry" />
        </mxCell>
        <mxCell id="r8tFkjvlElGeR6HCOG_i-1" value="External API" style="rounded=1;whiteSpace=wrap;html=1;fillColor=#0050ef;strokeColor=#001DBC;fontSize=21;fontColor=#ffffff;" parent="1" vertex="1">
          <mxGeometry x="670" y="740" width="151" height="80" as="geometry" />
        </mxCell>
        <mxCell id="r8tFkjvlElGeR6HCOG_i-30" value="" style="edgeStyle=orthogonalEdgeStyle;rounded=0;orthogonalLoop=1;jettySize=auto;html=1;fillColor=#fa6800;strokeColor=#C73500;fontSize=21;" parent="1" target="r8tFkjvlElGeR6HCOG_i-23" edge="1">
          <mxGeometry relative="1" as="geometry">
            <mxPoint x="-464.5" y="300" as="sourcePoint" />
            <mxPoint x="-700" y="430" as="targetPoint" />
            <Array as="points">
              <mxPoint x="-400" y="300" />
              <mxPoint x="-400" y="400" />
              <mxPoint x="-700" y="400" />
            </Array>
          </mxGeometry>
        </mxCell>
        <mxCell id="r8tFkjvlElGeR6HCOG_i-51" style="edgeStyle=orthogonalEdgeStyle;rounded=0;orthogonalLoop=1;jettySize=auto;html=1;exitX=1;exitY=0.5;exitDx=0;exitDy=0;entryX=0;entryY=0.5;entryDx=0;entryDy=0;shape=flexArrow;fillColor=#a20025;strokeColor=#6F0000;fontSize=21;" parent="1" source="r8tFkjvlElGeR6HCOG_i-2" target="r8tFkjvlElGeR6HCOG_i-4" edge="1">
          <mxGeometry relative="1" as="geometry" />
        </mxCell>
        <mxCell id="r8tFkjvlElGeR6HCOG_i-63" style="edgeStyle=orthogonalEdgeStyle;rounded=0;orthogonalLoop=1;jettySize=auto;html=1;exitX=0.5;exitY=1;exitDx=0;exitDy=0;fillColor=#fa6800;strokeColor=#C73500;fontSize=21;" parent="1" source="r8tFkjvlElGeR6HCOG_i-2" target="r8tFkjvlElGeR6HCOG_i-31" edge="1">
          <mxGeometry relative="1" as="geometry">
            <Array as="points">
              <mxPoint x="-400" y="370" />
              <mxPoint x="-400" y="400" />
              <mxPoint x="-294" y="400" />
            </Array>
          </mxGeometry>
        </mxCell>
        <mxCell id="r8tFkjvlElGeR6HCOG_i-2" value="Frontend" style="rounded=1;whiteSpace=wrap;html=1;fillColor=#008a00;strokeColor=#005700;fontColor=#ffffff;fontSize=21;" parent="1" vertex="1">
          <mxGeometry x="-479" y="290" width="151" height="80" as="geometry" />
        </mxCell>
        <mxCell id="r8tFkjvlElGeR6HCOG_i-41" value="" style="edgeStyle=orthogonalEdgeStyle;rounded=0;orthogonalLoop=1;jettySize=auto;html=1;fillColor=#fa6800;strokeColor=#C73500;fontSize=21;" parent="1" source="r8tFkjvlElGeR6HCOG_i-3" target="r8tFkjvlElGeR6HCOG_i-40" edge="1">
          <mxGeometry relative="1" as="geometry" />
        </mxCell>
        <mxCell id="r8tFkjvlElGeR6HCOG_i-3" value="DataBase" style="rounded=1;whiteSpace=wrap;html=1;fillColor=#008a00;strokeColor=#005700;fontColor=#ffffff;fontSize=21;" parent="1" vertex="1">
          <mxGeometry x="630" y="290" width="151" height="80" as="geometry" />
        </mxCell>
        <mxCell id="r8tFkjvlElGeR6HCOG_i-13" value="" style="edgeStyle=orthogonalEdgeStyle;rounded=0;orthogonalLoop=1;jettySize=auto;html=1;fillColor=#fa6800;strokeColor=#C73500;fontSize=21;" parent="1" source="r8tFkjvlElGeR6HCOG_i-4" target="r8tFkjvlElGeR6HCOG_i-12" edge="1">
          <mxGeometry relative="1" as="geometry">
            <Array as="points">
              <mxPoint x="236" y="380" />
              <mxPoint x="-30" y="380" />
            </Array>
          </mxGeometry>
        </mxCell>
        <mxCell id="r8tFkjvlElGeR6HCOG_i-19" value="" style="edgeStyle=orthogonalEdgeStyle;rounded=0;orthogonalLoop=1;jettySize=auto;html=1;fillColor=#fa6800;strokeColor=#C73500;fontSize=21;" parent="1" edge="1">
          <mxGeometry relative="1" as="geometry">
            <mxPoint x="162.5" y="380" as="sourcePoint" />
            <mxPoint x="130" y="590" as="targetPoint" />
            <Array as="points">
              <mxPoint x="228.5" y="380" />
              <mxPoint x="228.5" y="380" />
            </Array>
          </mxGeometry>
        </mxCell>
        <mxCell id="r8tFkjvlElGeR6HCOG_i-54" style="edgeStyle=orthogonalEdgeStyle;rounded=0;orthogonalLoop=1;jettySize=auto;html=1;exitX=1;exitY=0.5;exitDx=0;exitDy=0;entryX=0;entryY=0.5;entryDx=0;entryDy=0;shape=flexArrow;fillColor=#a20025;strokeColor=#6F0000;fontSize=21;" parent="1" source="r8tFkjvlElGeR6HCOG_i-4" target="r8tFkjvlElGeR6HCOG_i-3" edge="1">
          <mxGeometry relative="1" as="geometry" />
        </mxCell>
        <mxCell id="r8tFkjvlElGeR6HCOG_i-57" style="edgeStyle=orthogonalEdgeStyle;rounded=0;orthogonalLoop=1;jettySize=auto;html=1;exitX=1;exitY=0.75;exitDx=0;exitDy=0;shape=flexArrow;fillColor=#a20025;strokeColor=#6F0000;fontSize=21;" parent="1" source="r8tFkjvlElGeR6HCOG_i-4" target="r8tFkjvlElGeR6HCOG_i-1" edge="1">
          <mxGeometry relative="1" as="geometry">
            <Array as="points">
              <mxPoint x="311" y="380" />
              <mxPoint x="536" y="380" />
            </Array>
          </mxGeometry>
        </mxCell>
        <mxCell id="r8tFkjvlElGeR6HCOG_i-4" value="&lt;font style=&quot;font-size: 21px;&quot;&gt;Backend&lt;/font&gt;" style="rounded=1;whiteSpace=wrap;html=1;fillColor=#008a00;strokeColor=#005700;fontColor=#ffffff;fontSize=21;" parent="1" vertex="1">
          <mxGeometry x="160" y="290" width="151" height="80" as="geometry" />
        </mxCell>
        <mxCell id="r8tFkjvlElGeR6HCOG_i-44" style="edgeStyle=orthogonalEdgeStyle;rounded=0;orthogonalLoop=1;jettySize=auto;html=1;exitX=0.5;exitY=1;exitDx=0;exitDy=0;entryX=0.5;entryY=0;entryDx=0;entryDy=0;fillColor=#fa6800;strokeColor=#C73500;fontSize=21;" parent="1" source="r8tFkjvlElGeR6HCOG_i-5" target="r8tFkjvlElGeR6HCOG_i-2" edge="1">
          <mxGeometry relative="1" as="geometry" />
        </mxCell>
        <mxCell id="r8tFkjvlElGeR6HCOG_i-45" style="edgeStyle=orthogonalEdgeStyle;rounded=0;orthogonalLoop=1;jettySize=auto;html=1;exitX=0.5;exitY=1;exitDx=0;exitDy=0;fillColor=#fa6800;strokeColor=#C73500;fontSize=21;" parent="1" source="r8tFkjvlElGeR6HCOG_i-5" target="r8tFkjvlElGeR6HCOG_i-4" edge="1">
          <mxGeometry relative="1" as="geometry" />
        </mxCell>
        <mxCell id="r8tFkjvlElGeR6HCOG_i-46" style="edgeStyle=orthogonalEdgeStyle;rounded=0;orthogonalLoop=1;jettySize=auto;html=1;exitX=0.5;exitY=1;exitDx=0;exitDy=0;fillColor=#fa6800;strokeColor=#C73500;fontSize=21;" parent="1" source="r8tFkjvlElGeR6HCOG_i-5" target="r8tFkjvlElGeR6HCOG_i-3" edge="1">
          <mxGeometry relative="1" as="geometry" />
        </mxCell>
        <mxCell id="r8tFkjvlElGeR6HCOG_i-62" style="edgeStyle=orthogonalEdgeStyle;rounded=0;orthogonalLoop=1;jettySize=auto;html=1;exitX=0.5;exitY=1;exitDx=0;exitDy=0;entryX=0.5;entryY=0;entryDx=0;entryDy=0;fillColor=#fa6800;strokeColor=#C73500;fontSize=21;" parent="1" source="r8tFkjvlElGeR6HCOG_i-5" target="r8tFkjvlElGeR6HCOG_i-1" edge="1">
          <mxGeometry relative="1" as="geometry">
            <Array as="points">
              <mxPoint x="194" y="200" />
              <mxPoint x="980" y="200" />
              <mxPoint x="980" y="640" />
              <mxPoint x="746" y="640" />
            </Array>
          </mxGeometry>
        </mxCell>
        <mxCell id="r8tFkjvlElGeR6HCOG_i-5" value="MyApp" style="rounded=1;whiteSpace=wrap;html=1;fillColor=#1ba1e2;strokeColor=#006EAF;fontColor=#ffffff;fontSize=21;" parent="1" vertex="1">
          <mxGeometry x="118" y="30" width="151" height="80" as="geometry" />
        </mxCell>
        <mxCell id="r8tFkjvlElGeR6HCOG_i-12" value="Node.js" style="rounded=1;whiteSpace=wrap;html=1;fillColor=#0050ef;strokeColor=#001DBC;fontSize=21;fontColor=#ffffff;" parent="1" vertex="1">
          <mxGeometry x="-130.5" y="580" width="151" height="80" as="geometry" />
        </mxCell>
        <mxCell id="r8tFkjvlElGeR6HCOG_i-18" value="Express" style="rounded=1;whiteSpace=wrap;html=1;fillColor=#0050ef;strokeColor=#001DBC;fontSize=21;fontColor=#ffffff;" parent="1" vertex="1">
          <mxGeometry x="52" y="590" width="151" height="80" as="geometry" />
        </mxCell>
        <mxCell id="r8tFkjvlElGeR6HCOG_i-23" value="React(Vite)" style="rounded=1;whiteSpace=wrap;html=1;fillColor=#0050ef;strokeColor=#001DBC;fontSize=21;fontColor=#ffffff;" parent="1" vertex="1">
          <mxGeometry x="-790" y="460" width="151" height="80" as="geometry" />
        </mxCell>
        <mxCell id="r8tFkjvlElGeR6HCOG_i-31" value="Axios" style="rounded=1;whiteSpace=wrap;html=1;fillColor=#0050ef;strokeColor=#001DBC;fontSize=21;fontColor=#ffffff;" parent="1" vertex="1">
          <mxGeometry x="-370" y="480" width="151" height="80" as="geometry" />
        </mxCell>
        <mxCell id="r8tFkjvlElGeR6HCOG_i-34" value="HTML/CSS" style="rounded=1;whiteSpace=wrap;html=1;fillColor=#0050ef;strokeColor=#001DBC;fontSize=21;fontColor=#ffffff;" parent="1" vertex="1">
          <mxGeometry x="-580" y="470" width="151" height="80" as="geometry" />
        </mxCell>
        <mxCell id="r8tFkjvlElGeR6HCOG_i-40" value="MongoDB" style="rounded=1;whiteSpace=wrap;html=1;fillColor=#0050ef;strokeColor=#001DBC;fontSize=21;fontColor=#ffffff;" parent="1" vertex="1">
          <mxGeometry x="630" y="450" width="151" height="80" as="geometry" />
        </mxCell>
        <mxCell id="r8tFkjvlElGeR6HCOG_i-42" value="apithemovie API" style="rounded=1;whiteSpace=wrap;html=1;fillColor=#0050ef;strokeColor=#001DBC;fontSize=21;fontColor=#ffffff;" parent="1" vertex="1">
          <mxGeometry x="670" y="900" width="151" height="80" as="geometry" />
        </mxCell>
        <mxCell id="r8tFkjvlElGeR6HCOG_i-53" value="&lt;span style=&quot;background-color: rgb(140, 171, 255);&quot;&gt;&lt;font color=&quot;#f7f7f7&quot;&gt;&quot;User requests/Responses&quot;&lt;/font&gt;&lt;/span&gt;" style="text;html=1;align=center;verticalAlign=middle;resizable=0;points=[];autosize=1;fontSize=21;" parent="1" vertex="1">
          <mxGeometry x="-195" y="265" width="280" height="40" as="geometry" />
        </mxCell>
        <mxCell id="r8tFkjvlElGeR6HCOG_i-55" value="&lt;span style=&quot;background-color: rgb(140, 171, 255);&quot;&gt;&lt;font color=&quot;#ffffff&quot;&gt;Store/Retrive user data&lt;/font&gt;&lt;/span&gt;" style="text;html=1;align=center;verticalAlign=middle;resizable=0;points=[];autosize=1;fontSize=21;" parent="1" vertex="1">
          <mxGeometry x="346" y="265" width="240" height="40" as="geometry" />
        </mxCell>
        <mxCell id="r8tFkjvlElGeR6HCOG_i-59" value="&lt;span style=&quot;background-color: rgb(112, 174, 255);&quot;&gt;&lt;font color=&quot;#ffffff&quot;&gt;Store/Retrive user data&lt;/font&gt;&lt;/span&gt;" style="text;html=1;align=center;verticalAlign=middle;resizable=0;points=[];autosize=1;fontSize=21;" parent="1" vertex="1">
          <mxGeometry x="255" y="470" width="240" height="40" as="geometry" />
        </mxCell>
      </root>
    </mxGraphModel>
  </diagram>
</mxfile>
